<?xml version="1.0" encoding="UTF-8" standalone="no"?>
<!DOCTYPE score-partwise PUBLIC "-//Recordare//DTD MusicXML 3.1 Partwise//EN"
  "http://www.musicxml.org/dtds/partwise.dtd">
<score-partwise version="3.1">
  <part-list>
    <score-part id="P1">
      <part-name>Alto Sax - All Fingerings</part-name>
    </score-part>
  </part-list>
  <part id="P1">
    <!-- Measure 1: Low register (Bb3 - C#4) -->
    <measure number="1">
      <attributes>
        <divisions>1</divisions>
        <key><fifths>0</fifths></key>
        <time><beats>4</beats><beat-type>4</beat-type></time>
        <clef><sign>G</sign><line>2</line></clef>
      </attributes>
      <direction placement="above">
        <direction-type>
          <metronome>
            <beat-unit>quarter</beat-unit>
            <per-minute>60</per-minute>
          </metronome>
        </direction-type>
        <sound tempo="60"/>
      </direction>
      <note>
        <pitch><step>B</step><alter>-1</alter><octave>3</octave></pitch>
        <duration>1</duration>
        <type>quarter</type>
      </note>
      <note>
        <pitch><step>B</step><octave>3</octave></pitch>
        <duration>1</duration>
        <type>quarter</type>
      </note>
      <note>
        <pitch><step>C</step><octave>4</octave></pitch>
        <duration>1</duration>
        <type>quarter</type>
      </note>
      <note>
        <pitch><step>C</step><alter>1</alter><octave>4</octave></pitch>
        <duration>1</duration>
        <type>quarter</type>
      </note>
    </measure>
    
    <!-- Measure 2: Middle register part 1 (D4 - F#4) -->
    <measure number="2">
      <note>
        <pitch><step>D</step><octave>4</octave></pitch>
        <duration>1</duration>
        <type>quarter</type>
      </note>
      <note>
        <pitch><step>E</step><alter>-1</alter><octave>4</octave></pitch>
        <duration>1</duration>
        <type>quarter</type>
      </note>
      <note>
        <pitch><step>E</step><octave>4</octave></pitch>
        <duration>1</duration>
        <type>quarter</type>
      </note>
      <note>
        <pitch><step>F</step><octave>4</octave></pitch>
        <duration>1</duration>
        <type>quarter</type>
      </note>
    </measure>
    
    <!-- Measure 3: Middle register part 2 (F#4 - Bb4) -->
    <measure number="3">
      <note>
        <pitch><step>F</step><alter>1</alter><octave>4</octave></pitch>
        <duration>1</duration>
        <type>quarter</type>
      </note>
      <note>
        <pitch><step>G</step><octave>4</octave></pitch>
        <duration>1</duration>
        <type>quarter</type>
      </note>
      <note>
        <pitch><step>A</step><alter>-1</alter><octave>4</octave></pitch>
        <duration>1</duration>
        <type>quarter</type>
      </note>
      <note>
        <pitch><step>A</step><octave>4</octave></pitch>
        <duration>1</duration>
        <type>quarter</type>
      </note>
    </measure>
    
    <!-- Measure 4: Middle register part 3 (Bb4 - C#5) -->
    <measure number="4">
      <note>
        <pitch><step>B</step><alter>-1</alter><octave>4</octave></pitch>
        <duration>1</duration>
        <type>quarter</type>
      </note>
      <note>
        <pitch><step>B</step><octave>4</octave></pitch>
        <duration>1</duration>
        <type>quarter</type>
      </note>
      <note>
        <pitch><step>C</step><octave>5</octave></pitch>
        <duration>1</duration>
        <type>quarter</type>
      </note>
      <note>
        <pitch><step>C</step><alter>1</alter><octave>5</octave></pitch>
        <duration>1</duration>
        <type>quarter</type>
      </note>
    </measure>
    
    <!-- Measure 5: Upper register part 1 (D5 - F#5) -->
    <measure number="5">
      <note>
        <pitch><step>D</step><octave>5</octave></pitch>
        <duration>1</duration>
        <type>quarter</type>
      </note>
      <note>
        <pitch><step>E</step><alter>-1</alter><octave>5</octave></pitch>
        <duration>1</duration>
        <type>quarter</type>
      </note>
      <note>
        <pitch><step>E</step><octave>5</octave></pitch>
        <duration>1</duration>
        <type>quarter</type>
      </note>
      <note>
        <pitch><step>F</step><octave>5</octave></pitch>
        <duration>1</duration>
        <type>quarter</type>
      </note>
    </measure>
    
    <!-- Measure 6: Upper register part 2 (F#5 - Bb5) -->
    <measure number="6">
      <note>
        <pitch><step>F</step><alter>1</alter><octave>5</octave></pitch>
        <duration>1</duration>
        <type>quarter</type>
      </note>
      <note>
        <pitch><step>G</step><octave>5</octave></pitch>
        <duration>1</duration>
        <type>quarter</type>
      </note>
      <note>
        <pitch><step>A</step><alter>-1</alter><octave>5</octave></pitch>
        <duration>1</duration>
        <type>quarter</type>
      </note>
      <note>
        <pitch><step>A</step><octave>5</octave></pitch>
        <duration>1</duration>
        <type>quarter</type>
      </note>
    </measure>
    
    <!-- Measure 7: Upper register part 3 and palm keys (Bb5 - F6) -->
    <measure number="7">
      <note>
        <pitch><step>B</step><alter>-1</alter><octave>5</octave></pitch>
        <duration>1</duration>
        <type>quarter</type>
      </note>
      <note>
        <pitch><step>B</step><octave>5</octave></pitch>
        <duration>1</duration>
        <type>quarter</type>
      </note>
      <note>
        <pitch><step>D</step><octave>6</octave></pitch>
        <duration>1</duration>
        <type>quarter</type>
      </note>
      <note>
        <pitch><step>E</step><alter>-1</alter><octave>6</octave></pitch>
        <duration>1</duration>
        <type>quarter</type>
      </note>
    </measure>
    
    <!-- Measure 8: Final palm key -->
    <measure number="8">
      <note>
        <pitch><step>F</step><octave>6</octave></pitch>
        <duration>4</duration>
        <type>whole</type>
      </note>
      <barline location="right">
        <bar-style>light-heavy</bar-style>
      </barline>
    </measure>
  </part>
</score-partwise>
